inDegrees=no
nColumns=32
nRows=12
DataType=double
version=3
OpenSimVersion=4.5
endheader
time	pelvis_tilt	pelvis_list	pelvis_rotation	pelvis_tz	pelvis_ty	pelvis_tx	hip_flexion_r	hip_adduction_r	hip_rotation_r	knee_angle_r	ankle_angle_r	subtalar_angle_r	mtp_angle_r	hip_flexion_l	hip_adduction_l	hip_rotation_l	knee_angle_l	ankle_angle_l	subtalar_angle_l	mtp_angle_l	lumbar_extension	lumbar_bending	lumbar_rotation	arm_flex_r	arm_add_r	arm_rot_r	elbow_flex_r	arm_flex_l	arm_add_l	arm_rot_l	elbow_flex_l
0	-0.01597533416598258	-0.05481737245509018	-0.08430522884109821	0	0.83792806	-0	-0.2007812234646937	0.07527490832051999	-0.1010304233434556	-0.2832412826549388	0.3946946217013502	0.365158804850938	0	0.5126299214289181	-0.06429833455985756	-0.2466279563710889	-0.2002269264419479	-0.04666562969772504	0.2482027308268479	0	-0.120435123819625	0.05576923740553017	0.2243526315418214	-0.05461885127656669	-0.1989632733314519	-0.5021271628468029	0.7381435634424586	-0.2692874367208338	-0.09083787085594375	-0.861158956022826	0.4325208001462241
0.01000000000000001	-0.0163904395073196	-0.04618056713997065	-0.08668077514338668	4.125000000002044e-05	0.83681381	0.01425991	-0.2051041507746092	0.06223763338773997	-0.1025747397093722	-0.3050804524966597	0.3792321602857112	0.3643574444298006	0	0.5096668056210384	-0.05633768433612064	-0.2487222272060394	-0.226450668099166	-0.052623161001092	0.2358887004393408	0	-0.1144784046179589	0.04306838847417314	0.2232464738014328	-0.0619353254316008	-0.1909059992368636	-0.5053447494049526	0.737003917720646	-0.2741951065769668	-0.09069542912516781	-0.8676894394751817	0.4316391903587446
0.02000000000000002	-0.02036260620847496	-0.03398663146970215	-0.08831277022915396	-2.843999999999069e-05	0.83591598	0.02861879	-0.2044201054516714	0.04631695898986882	-0.09846723664370113	-0.327737050086079	0.3618334445605435	0.3646688938969629	0	0.5085587370941845	-0.0426595827960053	-0.2478501902004413	-0.2413986514808119	-0.1035355984404665	0.1965397585249504	0	-0.1043162466903047	0.02621814997136055	0.2217934659061306	-0.06904573851022869	-0.1782872464047302	-0.5229904981597828	0.732816155514789	-0.274253725903356	-0.09120420377223137	-0.8875226671519346	0.4334144736494934
0.03000000000000003	-0.02466402050353499	-0.02262672385016043	-0.08441798155996086	-0.0008185500000000012	0.83545335	0.04266013	-0.2013827887159724	0.03213597084545445	-0.09631220147271079	-0.3522029196826333	0.3299588461953533	0.3628674320636976	0	0.5115380233775839	-0.02713663716967128	-0.2389547067227511	-0.2543942332902886	-0.1400442981697787	0.1559369647455443	0	-0.0942227398925142	0.01104695119568938	0.212740242363172	-0.07441049438949579	-0.1703289251483472	-0.533347280021255	0.7270964598795255	-0.2750014595124295	-0.09232765126778909	-0.8966751639755491	0.4321222041205817
0.04000000000000004	-0.03050556924706334	-0.008106643300494714	-0.07770492988447238	-0.002338779999999985	0.83524584	0.05677565	-0.1920292214104149	0.01373549267830989	-0.09966646546271581	-0.38429463630864	0.3027793458336481	0.3613479937954719	0	0.5149147539438523	-0.004777649808176485	-0.2176343845213387	-0.2687420920154203	-0.1533958712961262	0.1044431303815954	0	-0.08196946511440079	-0.006571319793529152	0.2018402567916798	-0.08051265484479023	-0.1590124668418159	-0.5473586757439836	0.7170042531774948	-0.2737916381156516	-0.09236111272020835	-0.9067566868190966	0.4308146577247273
0.05000000000000004	-0.03267641152132629	0.00420266435341548	-0.07180900639278606	-0.00372981	0.83579262	0.07111876	-0.1859075450324905	-0.001961844152488309	-0.09765264941936042	-0.4160899487292354	0.259712219407057	0.3547239844316873	0	0.5149609254074834	0.01417845235554414	-0.2031269124690524	-0.2930849001917457	-0.1385134777368361	0.08282343098092378	0	-0.07439740965609358	-0.02159546114068456	0.1905003190943203	-0.08927966899956419	-0.1532794384618635	-0.5526606322333029	0.7126095298289363	-0.2743072446795392	-0.09260916310229197	-0.9092664388675379	0.4299365970642817
0.05999999999999983	-0.03456471484107345	0.01810553974652357	-0.06465969337343613	-0.005131549999999985	0.83669506	0.085214	-0.1765491260606783	-0.01797520460935247	-0.09150706918653362	-0.4521944083871701	0.2092952711684799	0.3460942995892443	0	0.5140516767605022	0.03556036443373264	-0.1877925044643688	-0.3194794532085992	-0.1101677207927462	0.0650926707288874	0	-0.06870014167625109	-0.03941351368619358	0.1794093974697195	-0.09759723591374128	-0.145713319566474	-0.5568226131335811	0.7065689182351806	-0.2702418911407708	-0.09406776163625412	-0.9088783848051105	0.4320313750919128
0.06999999999999984	-0.04306278871098851	0.03131405832786292	-0.05675306359887078	-0.006806479999999976	0.83742485	0.09974313999999999	-0.1591800441063474	-0.03250748581882416	-0.0841914177797089	-0.4877196485933051	0.1478735921214837	0.3340857667470845	0	0.5172846826044615	0.05728181583166384	-0.1639726571458	-0.3412279966543774	-0.08514495468005817	0.04834039354273198	0	-0.05288888877597154	-0.05476337343981101	0.1675502511979622	-0.1093097740047323	-0.1379161201253181	-0.5675835214454965	0.6979052596861829	-0.2704083601212273	-0.0939510656063402	-0.9077756428486009	0.435897149183518
0.07999999999999985	-0.0418575105044328	0.04385231965210908	-0.05323913484167489	-0.007822839999999998	0.838998	0.11333767	-0.1428290243984108	-0.04706849462418493	-0.07314192521009569	-0.5346489299967645	0.08287016426604102	0.3211968645229445	0	0.5125990362570075	0.07391798376759985	-0.1506049336152192	-0.3668375120928569	-0.05846142348469469	0.03539894329453882	0	-0.05248038957762036	-0.07046273014015253	0.1579792937092908	-0.11550795881028	-0.1310967094580666	-0.5716531025207791	0.6931561938332981	-0.2647905712939279	-0.09381234788458924	-0.9048296940992437	0.4403768274806148
0.08999999999999986	-0.05202623101559553	0.05664735022676302	-0.05128190198763097	-0.008783159999999984	0.83989146	0.12715947	-0.1123187961607296	-0.06096585908570151	-0.05661757353801794	-0.5809016420206039	0.005548720912810163	0.2993050452535408	0	0.5148124774751525	0.09116070370955344	-0.1300727385740227	-0.3837850874335203	-0.04179633317412509	0.01757703618937677	0	-0.03633406487688445	-0.08570559963982638	0.1525312678223452	-0.1268194764387647	-0.1221437124946014	-0.5849878686500286	0.684835145510862	-0.2660272934504669	-0.09326306589091614	-0.8953427932381448	0.4529990830140241
0.09999999999999987	-0.051440059840485	0.06926307412025305	-0.05296547681703279	-0.0095972	0.84138451	0.14043333	-0.08780221462649518	-0.07681589006036771	-0.04107031198454512	-0.6320598726077405	-0.05037627368942526	0.2945510741527932	0	0.5064160815435786	0.1059474825473657	-0.1240440622398237	-0.401318061738733	-0.01632754118977294	0.01403744057302436	0	-0.03437593810116996	-0.09998346315703732	0.1475234110056929	-0.134490550185124	-0.1192099690072365	-0.5893025812187537	0.6793804608437541	-0.2612657127141806	-0.09177032679692282	-0.889439767869186	0.4606983422570068
0.1099999999999999	-0.06139388649810974	0.08444732606117571	-0.05705155393840777	-0.009881399999999985	0.84210634	0.15302945	-0.04510117834089283	-0.09443142437331911	-0.02117440063317385	-0.6923392195221395	-0.06931160800584349	0.2982797020171059	0	0.5044588541360278	0.1204557731590712	-0.1237667456532439	-0.4069113246757844	-0.002961482354232687	0.01416420942165032	0	-0.0209404724081998	-0.1174736777682407	0.1454027204237233	-0.1408894907897507	-0.1125594494883774	-0.597799530280924	0.6728316463727977	-0.2606269010894667	-0.09144197800474511	-0.8742830116930749	0.4790577509069897
